<svg id="Layer_1" data-name="Layer 1" xmlns="http://www.w3.org/2000/svg" viewBox="0 0 51.2 36.17" fill="#fff"><title>testimonial</title><path d="M0,21.18c0.16-1.24.28-2.48,0.49-3.71a30.32,30.32,0,0,1,4-10.68A28,28,0,0,1,9.71.42a0.91,0.91,0,0,1,1.54,0l3.43,3.43a0.91,0.91,0,0,1,.15,1.44,16.17,16.17,0,0,0-2.46,5.37c-0.19.88-.25,1.8-0.36,2.67,1,0.22,1.92.36,2.79,0.62a11.34,11.34,0,0,1-1,21.92,11.1,11.1,0,0,1-12.2-5.74A13.56,13.56,0,0,1,.07,24.56,4.81,4.81,0,0,0,0,24.08v-2.9ZM10.4,2a3.73,3.73,0,0,0-.27.26C9.37,3.09,8.58,3.91,7.89,4.8A28.65,28.65,0,0,0,1.64,21.54a17.85,17.85,0,0,0,.57,6A9.61,9.61,0,0,0,15,33.87a9.75,9.75,0,0,0,4.87-13.95,9.54,9.54,0,0,0-8.12-4.86A1,1,0,0,1,10.57,14a5.85,5.85,0,0,1-.07-0.69,11.48,11.48,0,0,1,1-5.06C12,7.05,12.61,5.9,13.2,4.7Z"/><path d="M40.52,13.46a11.94,11.94,0,0,1,4.83,1.41A11.29,11.29,0,0,1,51,26.59a11.25,11.25,0,0,1-21,3.59,15.55,15.55,0,0,1-1.58-7.59A30.7,30.7,0,0,1,35.47,3.22,38.33,38.33,0,0,1,38.19.36a0.83,0.83,0,0,1,1.38,0q1.79,1.78,3.57,3.57a0.86,0.86,0,0,1,.12,1.33,17.79,17.79,0,0,0-2.39,5A8.93,8.93,0,0,0,40.52,13.46ZM38.79,1.92c-0.83,1-1.71,1.87-2.48,2.87a28.58,28.58,0,0,0-6.23,19.43,12.39,12.39,0,0,0,1.32,5.13A9.51,9.51,0,0,0,43,34a9.74,9.74,0,0,0-2.65-18.93c-1.1,0-1.24-.17-1.42-1.24a3.72,3.72,0,0,1,0-.5A13.74,13.74,0,0,1,40.68,6.5c0.31-.6.66-1.18,1-1.77Z"/></svg>